<svg width="24" height="24" viewBox="0 0 24 24" fill="none" xmlns="http://www.w3.org/2000/svg">
<path d="M8.31473 23C10.33 23 11.9656 21.3574 11.9656 19.3334V15.6667H8.31473C6.29943 15.6667 4.66382 17.3094 4.66382 19.3334C4.66382 21.3574 6.29943 23 8.31473 23Z" fill="#0ACF83"/>
<path d="M4.66382 12C4.66382 9.97598 6.29943 8.33331 8.31473 8.33331H11.9656V15.6666H8.31473C6.29943 15.6666 4.66382 14.024 4.66382 12Z" fill="#A259FF"/>
<path d="M4.66382 4.66667C4.66382 2.64267 6.29943 1 8.31473 1H11.9656V8.33333H8.31473C6.29943 8.33333 4.66382 6.69067 4.66382 4.66667Z" fill="#F24E1E"/>
<path d="M11.9656 1H15.6165C17.6318 1 19.2675 2.64267 19.2675 4.66667C19.2675 6.69067 17.6318 8.33333 15.6165 8.33333H11.9656V1Z" fill="#FF7262"/>
<path d="M19.2675 12C19.2675 14.024 17.6318 15.6666 15.6165 15.6666C13.6012 15.6666 11.9656 14.024 11.9656 12C11.9656 9.97598 13.6012 8.33331 15.6165 8.33331C17.6318 8.33331 19.2675 9.97598 19.2675 12Z" fill="#1ABCFE"/>
</svg>
